Coordinates
version=1
nRows=28
nColumns=38
inDegrees=no

Units are S.I. units (second, meters, Newtons, ...)
If the header above contains a line with 'inDegrees', this indicates whether rotational values are in degrees (yes) or radians (no).

endheader
time	pelvis_tilt	pelvis_list	pelvis_rotation	pelvis_tx	pelvis_ty	pelvis_tz	hip_flexion_r	hip_adduction_r	hip_rotation_r	knee_angle_r	ankle_angle_r	subtalar_angle_r	mtp_angle_r	hip_flexion_l	hip_adduction_l	hip_rotation_l	knee_angle_l	ankle_angle_l	subtalar_angle_l	mtp_angle_l	lumbar_extension	lumbar_bending	lumbar_rotation	arm_flex_r	arm_add_r	arm_rot_r	elbow_flex_r	pro_sup_r	wrist_flex_r	wrist_dev_r	arm_flex_l	arm_add_l	arm_rot_l	elbow_flex_l	pro_sup_l	wrist_flex_l	wrist_dev_l
1.06	3.03357	1.377	-1.57811	0.765572	0.442259	0.974316	0.321279	-0.0475422	-0.0849606	0.79725	0.25244	0	0	-0.267771	0.024451	0.698132	0	-0.698132	0	0	-0.35944	0.0239458	0.0948084	0.310492	-0.397227	0.0639284	1.14577	0.972136	0	0	0.235585	-0.359643	0.0278371	1.19523	0.894883	0	0
1.07	3.01032	1.37538	-1.55192	0.765292	0.453202	0.974404	0.331	-0.0456033	-0.105374	0.763929	0.253807	0	0	-0.282415	0.0206641	0.698132	0	-0.698132	0	0	-0.361627	0.0315989	0.0933001	0.313321	-0.397256	0.0634803	1.14467	0.97359	0	0	0.238412	-0.358983	0.0292732	1.19258	0.896401	0	0
1.08	2.98841	1.3736	-1.52631	0.765059	0.464115	0.97436	0.340236	-0.0438521	-0.126501	0.7313	0.25595	0	0	-0.297102	0.0166757	0.698132	0	-0.698132	0	0	-0.364052	0.0391446	0.0909617	0.316506	-0.397075	0.0633646	1.1436	0.976071	0	0	0.24089	-0.358598	0.0288021	1.19159	0.895582	0	0
1.09	2.96878	1.37172	-1.50225	0.764854	0.475023	0.974172	0.34897	-0.0423979	-0.14808	0.699537	0.258461	0	0	-0.311735	0.0126611	0.698132	0	-0.698132	0	0	-0.366653	0.046348	0.087629	0.32011	-0.396552	0.0633771	1.14262	0.978726	0	0	0.243719	-0.358455	0.0277849	1.19083	0.895546	0	0
1.1	2.95088	1.36989	-1.47909	0.764687	0.485964	0.973815	0.357246	-0.0412091	-0.170153	0.668548	0.260884	0	0	-0.326147	0.00847636	0.698132	0	-0.698132	0	0	-0.36912	0.0533544	0.0833954	0.323569	-0.396022	0.0638561	1.14206	0.981249	0	0	0.246997	-0.358121	0.026361	1.19011	0.89716	0	0
1.11	2.93566	1.36809	-1.45777	0.764551	0.496933	0.973314	0.364969	-0.0406569	-0.193088	0.638028	0.26282	0	0	-0.340476	0.00427059	0.698132	0	-0.698132	0	0	-0.371456	0.0599964	0.0786214	0.326552	-0.395527	0.0637903	1.14218	0.982918	0	0	0.250956	-0.357106	0.0244947	1.18893	0.901871	0	0
1.12	2.92283	1.36958	-1.44151	0.764689	0.508056	0.972373	0.376757	-0.0396291	-0.211905	0.609461	0.264403	0	0	-0.3517	0.00163481	0.698132	0	-0.698132	0	0	-0.369832	0.0651242	0.0765413	0.328272	-0.398295	0.0715021	1.14584	0.92877	0	0	0.253796	-0.355141	0.0220568	1.18812	0.90722	0	0
1.13	2.91164	1.36563	-1.42088	0.764439	0.518955	0.971848	0.379772	-0.0397907	-0.236691	0.578304	0.265142	0	0	-0.367859	-0.00342149	0.698132	0	-0.698132	0	0	-0.375075	0.0719411	0.0696897	0.331595	-0.395027	0.0632936	1.14394	0.967675	0	0	0.259527	-0.354632	0.0212734	1.18797	0.913823	0	0
1.14	2.90163	1.36544	-1.40505	0.764599	0.530145	0.970824	0.387448	-0.0389179	-0.256137	0.549137	0.266283	0	0	-0.380701	-0.00678708	0.698132	0	-0.698132	0	0	-0.375549	0.0768988	0.0663927	0.333276	-0.393007	0.0577971	1.1435	0.983572	0	0	0.26343	-0.354101	0.0210764	1.18846	0.917922	0	0
1.15	2.89274	1.36548	-1.39014	0.764832	0.541368	0.969652	0.394668	-0.0379859	-0.274288	0.520199	0.267187	0	0	-0.3934	-0.0100724	0.698132	0	-0.698132	0	0	-0.375743	0.0815963	0.0631067	0.334771	-0.391472	0.0533025	1.14327	0.992133	0	0	0.267524	-0.354115	0.0219775	1.18929	0.920298	0	0
1.16	2.8844	1.366	-1.37536	0.765138	0.552735	0.968412	0.401736	-0.0369418	-0.29028	0.491189	0.268145	0	0	-0.405398	-0.0133865	0.698132	0	-0.698132	0	0	-0.375611	0.0863379	0.0594613	0.337007	-0.39123	0.0510749	1.14262	0.996668	0	0	0.272274	-0.35426	0.0236289	1.18985	0.922925	0	0
1.17	2.87556	1.36684	-1.36018	0.765324	0.564151	0.966986	0.40784	-0.0350553	-0.304476	0.461708	0.269045	0	0	-0.417369	-0.0171114	0.698132	0	-0.698132	0	0	-0.374751	0.091016	0.055907	0.339038	-0.391351	0.0500393	1.14161	0.998954	0	0	0.277206	-0.354238	0.0251018	1.18958	0.926633	0	0
1.18	2.86546	1.36767	-1.34325	0.765705	0.57547	0.965537	0.411906	-0.0323614	-0.316563	0.430255	0.269344	0	0	-0.429479	-0.0215158	0.698132	0	-0.698132	0	0	-0.373869	0.0961741	0.0519546	0.340834	-0.391379	0.0487969	1.14092	1.00093	0	0	0.282322	-0.353743	0.0261619	1.18871	0.931488	0	0
1.19	2.85727	1.36832	-1.32826	0.766298	0.587306	0.96399	0.414002	-0.0294324	-0.326541	0.397638	0.268897	0	0	-0.442022	-0.0258157	0.698132	0	-0.698132	0	0	-0.372859	0.100841	0.048106	0.341833	-0.390734	0.0464435	1.14026	1.00353	0	0	0.287044	-0.352707	0.0264228	1.18754	0.935214	0	0
1.2	2.85139	1.37202	-1.31979	0.76703	0.599049	0.962153	0.418495	-0.0256247	-0.328902	0.365086	0.267428	0	0	-0.452281	-0.0272618	0.698132	0	-0.698132	0	0	-0.36877	0.103481	0.0478892	0.342364	-0.3941	0.0538137	1.1429	0.944537	0	0	0.289724	-0.350751	0.0267698	1.18742	0.928239	0	0
1.21	2.84481	1.37049	-1.30182	0.767361	0.611311	0.960826	0.412574	-0.0225292	-0.336542	0.327379	0.262807	0	0	-0.466465	-0.0339655	0.698132	0	-0.698132	0	0	-0.369863	0.109473	0.0398867	0.344194	-0.390547	0.045263	1.13863	0.98602	0	0	0.294495	-0.349637	0.0255703	1.18671	0.937418	0	0
1.22	2.79338	1.3612	-1.24251	0.767512	0.623195	0.960727	0.355751	0.0172826	-0.245461	0.182335	0.203128	0	0	-0.486534	-0.0509767	0.698132	0	-0.698132	0	0	-0.378397	0.128242	0.0374472	0.349652	-0.391772	0.0434967	1.1357	0.997944	0	0	0.299172	-0.344649	0.0228434	1.18369	0.942728	0	0
1.23	2.84078	1.37417	-1.2843	0.768815	0.636318	0.957287	0.403126	-0.0141075	-0.328553	0.250449	0.247607	0	0	-0.490616	-0.0404189	0.698132	0	-0.698132	0	0	-0.363845	0.115353	0.0303999	0.34641	-0.387461	0.0393723	1.13273	1.01278	0	0	0.299597	-0.348741	0.0256901	1.18575	0.948815	0	0
1.24	2.79348	1.36585	-1.22508	0.768793	0.649313	0.956848	0.333755	0.0229677	-0.2195	0.0867219	0.168624	0	0	-0.510301	-0.0584826	0.698132	0	-0.698132	0	0	-0.36866	0.13404	0.0231277	0.349951	-0.389424	0.0410161	1.13073	1.01144	0	0	0.303234	-0.346467	0.0266798	1.18196	0.951654	0	0
1.25	2.8329	1.38132	-1.26283	0.770546	0.662707	0.953153	0.384762	-0.00239199	-0.294511	0.16309	0.220054	0	0	-0.512332	-0.0484838	0.698132	0	-0.698132	0	0	-0.351236	0.120626	0.020281	0.345834	-0.386705	0.0395474	1.12849	1.01168	0	0	0.304525	-0.351225	0.032848	1.18119	0.950688	0	0
1.26	2.84697	1.38924	-1.27055	0.771663	0.676404	0.950521	0.386459	-0.00554978	-0.290898	0.146394	0.221709	0	0	-0.519779	-0.0477966	0.698132	0	-0.698132	0	0	-0.340251	0.118293	0.0148777	0.34327	-0.3872	0.0410799	1.12816	0.99592	0	0	0.306541	-0.353083	0.0387013	1.17794	0.943107	0	0
1.27	2.82801	1.39599	-1.24159	0.772192	0.689702	0.948513	0.346336	0.0108996	-0.208009	0.0395302	0.174063	0	0	-0.523599	-0.0550857	0.697633	0	-0.698132	0	0	-0.332215	0.124426	0.0079138	0.341559	-0.390669	0.0456874	1.13092	0.961226	0	0	0.308281	-0.351821	0.0425301	1.17365	0.93354	0	0
1.28	2.86662	1.4083	-1.28617	0.774753	0.704585	0.944695	0.396597	-0.00888315	-0.278787	0.138196	0.234345	0	0	-0.523599	-0.0373281	0.600203	0.0137934	-0.698132	0	0	-0.315891	0.112252	0.012115	0.336556	-0.390186	0.0464123	1.13404	0.940401	0	0	0.306258	-0.35476	0.0458698	1.17466	0.928012	0	0
1.29	2.84489	1.41696	-1.23996	0.773564	0.717999	0.942689	0.35733	-0.000302456	-0.201976	0.0462152	0.186696	0	0	-0.523599	-0.0539474	0.695664	0.0179373	-0.698132	0	0	-0.305336	0.122548	-0.00943716	0.335671	-0.385091	0.0302889	1.13023	1.01108	0	0	0.308297	-0.35293	0.045514	1.17195	0.936012	0	0
1.3	2.89061	1.42877	-1.28144	0.775398	0.732217	0.939194	0.407181	-0.0249226	-0.275769	0.160887	0.244155	0	0	-0.523599	-0.0464581	0.695343	0.0289191	-0.698132	0	0	-0.292434	0.112494	-0.0142482	0.331473	-0.382246	0.0265626	1.13223	1.01075	0	0	0.306585	-0.356757	0.0475457	1.17509	0.934108	0	0
1.31	2.88174	1.42743	-1.2725	0.776385	0.749723	0.93705	0.362974	-0.00791245	-0.189329	0.100545	0.205818	0	0	-0.523599	-0.0348615	0.554489	0.0774235	-0.698132	0	0	-0.280102	0.118568	-0.0174459	0.324208	-0.385422	0.030319	1.1361	0.987498	0	0	0.294238	-0.353725	0.0440119	1.1726	0.92329	0	0
1.32	2.98616	1.41812	-1.3731	0.778175	0.764778	0.935009	0.390073	-0.0372741	-0.272561	0.232546	0.269617	0	0	-0.523599	-0.0160443	0.44649	0.13687	-0.698132	0	0	-0.291923	0.105457	-0.0214663	0.324288	-0.386826	0.0344936	1.14067	0.979573	0	0	0.295301	-0.359429	0.0493076	1.17723	0.918814	0	0
1.33	2.98958	1.40177	-1.36778	0.779254	0.781386	0.933767	0.357051	-0.0316503	-0.258865	0.241851	0.269191	0	0	-0.523599	-0.0184488	0.348229	0.210137	-0.698132	0	0	-0.30013	0.112588	-0.0289909	0.321156	-0.389722	0.0381476	1.14349	0.972037	0	0	0.291192	-0.360676	0.0520079	1.1768	0.915513	0	0
